<mxfile host="app.diagrams.net" agent="Mozilla/5.0 (Windows NT 10.0; Win64; x64) AppleWebKit/537.36 (KHTML, like Gecko) Chrome/131.0.0.0 Safari/537.36 Edg/131.0.0.0" version="24.8.6">
  <diagram name="PÃ¡gina-1" id="LYmqS1A7LS2Q03RN1bD8">
    <mxGraphModel dx="2564" dy="1130" grid="1" gridSize="10" guides="1" tooltips="1" connect="1" arrows="1" fold="1" page="1" pageScale="1" pageWidth="827" pageHeight="1169" math="0" shadow="0">
      <root>
        <mxCell id="0" />
        <mxCell id="1" parent="0" />
        <mxCell id="K2BF5qZL_mA2AORwVQ5u-7" style="edgeStyle=orthogonalEdgeStyle;rounded=0;orthogonalLoop=1;jettySize=auto;html=1;exitX=1;exitY=0.5;exitDx=0;exitDy=0;entryX=0;entryY=0.5;entryDx=0;entryDy=0;fillColor=#FF3333;strokeColor=#FF0000;" parent="1" source="K2BF5qZL_mA2AORwVQ5u-1" target="K2BF5qZL_mA2AORwVQ5u-2" edge="1">
          <mxGeometry relative="1" as="geometry" />
        </mxCell>
        <mxCell id="K2BF5qZL_mA2AORwVQ5u-1" value="&lt;b&gt;&lt;font style=&quot;font-size: 18px;&quot;&gt;Battery&lt;/font&gt;&lt;/b&gt;" style="whiteSpace=wrap;html=1;aspect=fixed;" parent="1" vertex="1">
          <mxGeometry x="90" y="190" width="130" height="130" as="geometry" />
        </mxCell>
        <mxCell id="K2BF5qZL_mA2AORwVQ5u-2" value="&lt;b&gt;&lt;font style=&quot;font-size: 14px;&quot;&gt;BMS&lt;/font&gt;&lt;/b&gt;" style="whiteSpace=wrap;html=1;aspect=fixed;" parent="1" vertex="1">
          <mxGeometry x="260" y="220" width="70" height="70" as="geometry" />
        </mxCell>
        <mxCell id="K2BF5qZL_mA2AORwVQ5u-12" style="edgeStyle=orthogonalEdgeStyle;rounded=0;orthogonalLoop=1;jettySize=auto;html=1;exitX=0;exitY=0.75;exitDx=0;exitDy=0;entryX=0.994;entryY=0.723;entryDx=0;entryDy=0;entryPerimeter=0;" parent="1" source="K2BF5qZL_mA2AORwVQ5u-10" target="K2BF5qZL_mA2AORwVQ5u-2" edge="1">
          <mxGeometry relative="1" as="geometry">
            <Array as="points">
              <mxPoint x="440" y="270" />
              <mxPoint x="385" y="270" />
            </Array>
          </mxGeometry>
        </mxCell>
        <mxCell id="K2BF5qZL_mA2AORwVQ5u-10" value="" style="rounded=0;whiteSpace=wrap;html=1;" parent="1" vertex="1">
          <mxGeometry x="440" y="220" width="130" height="70" as="geometry" />
        </mxCell>
        <mxCell id="K2BF5qZL_mA2AORwVQ5u-13" value="VCC" style="text;html=1;align=center;verticalAlign=middle;whiteSpace=wrap;rounded=0;" parent="1" vertex="1">
          <mxGeometry x="450" y="230" width="30" height="10" as="geometry" />
        </mxCell>
        <mxCell id="K2BF5qZL_mA2AORwVQ5u-14" value="GND" style="text;html=1;align=center;verticalAlign=middle;whiteSpace=wrap;rounded=0;" parent="1" vertex="1">
          <mxGeometry x="450" y="270" width="30" height="10" as="geometry" />
        </mxCell>
        <mxCell id="K2BF5qZL_mA2AORwVQ5u-15" value="OUT" style="text;html=1;align=center;verticalAlign=middle;whiteSpace=wrap;rounded=0;" parent="1" vertex="1">
          <mxGeometry x="530" y="230" width="30" height="10" as="geometry" />
        </mxCell>
        <mxCell id="K2BF5qZL_mA2AORwVQ5u-16" value="GND" style="text;html=1;align=center;verticalAlign=middle;whiteSpace=wrap;rounded=0;" parent="1" vertex="1">
          <mxGeometry x="530" y="270" width="30" height="10" as="geometry" />
        </mxCell>
        <mxCell id="K2BF5qZL_mA2AORwVQ5u-17" value="&lt;font style=&quot;font-size: 14px;&quot;&gt;&lt;b&gt;Conversor&lt;/b&gt;&lt;/font&gt;" style="text;html=1;align=center;verticalAlign=middle;whiteSpace=wrap;rounded=0;" parent="1" vertex="1">
          <mxGeometry x="475" y="240" width="60" height="30" as="geometry" />
        </mxCell>
        <mxCell id="K2BF5qZL_mA2AORwVQ5u-21" value="&lt;b&gt;&lt;font style=&quot;font-size: 14px;&quot;&gt;RaspBerry&lt;/font&gt;&lt;/b&gt;" style="rounded=0;whiteSpace=wrap;html=1;" parent="1" vertex="1">
          <mxGeometry x="760" y="340" width="200" height="300" as="geometry" />
        </mxCell>
        <mxCell id="K2BF5qZL_mA2AORwVQ5u-22" value="VCC" style="text;html=1;align=center;verticalAlign=middle;whiteSpace=wrap;rounded=0;" parent="1" vertex="1">
          <mxGeometry x="760" y="345" width="40" height="10" as="geometry" />
        </mxCell>
        <mxCell id="K2BF5qZL_mA2AORwVQ5u-23" value="GND" style="text;html=1;align=center;verticalAlign=middle;whiteSpace=wrap;rounded=0;" parent="1" vertex="1">
          <mxGeometry x="770" y="365" width="20" height="10" as="geometry" />
        </mxCell>
        <mxCell id="K2BF5qZL_mA2AORwVQ5u-28" value="GPI014" style="text;html=1;align=center;verticalAlign=middle;whiteSpace=wrap;rounded=0;" parent="1" vertex="1">
          <mxGeometry x="920" y="385" width="30" height="20" as="geometry" />
        </mxCell>
        <mxCell id="K2BF5qZL_mA2AORwVQ5u-37" style="edgeStyle=orthogonalEdgeStyle;rounded=0;orthogonalLoop=1;jettySize=auto;html=1;entryX=0;entryY=0.5;entryDx=0;entryDy=0;strokeColor=#007FFF;" parent="1" target="K2BF5qZL_mA2AORwVQ5u-32" edge="1">
          <mxGeometry relative="1" as="geometry">
            <mxPoint x="960" y="410" as="sourcePoint" />
            <Array as="points">
              <mxPoint x="960" y="415" />
            </Array>
          </mxGeometry>
        </mxCell>
        <mxCell id="K2BF5qZL_mA2AORwVQ5u-29" value="GPI015" style="text;html=1;align=center;verticalAlign=middle;whiteSpace=wrap;rounded=0;" parent="1" vertex="1">
          <mxGeometry x="920" y="405" width="30" height="20" as="geometry" />
        </mxCell>
        <mxCell id="K2BF5qZL_mA2AORwVQ5u-30" value="&lt;font style=&quot;font-size: 14px;&quot;&gt;&lt;b&gt;PixHawk&lt;/b&gt;&lt;/font&gt;" style="whiteSpace=wrap;html=1;aspect=fixed;" parent="1" vertex="1">
          <mxGeometry x="1080" y="340" width="140" height="140" as="geometry" />
        </mxCell>
        <mxCell id="K2BF5qZL_mA2AORwVQ5u-31" value="TX" style="text;html=1;align=center;verticalAlign=middle;whiteSpace=wrap;rounded=0;" parent="1" vertex="1">
          <mxGeometry x="1080" y="390" width="30" height="10" as="geometry" />
        </mxCell>
        <mxCell id="K2BF5qZL_mA2AORwVQ5u-32" value="RX" style="text;html=1;align=center;verticalAlign=middle;whiteSpace=wrap;rounded=0;" parent="1" vertex="1">
          <mxGeometry x="1080" y="410" width="30" height="10" as="geometry" />
        </mxCell>
        <mxCell id="K2BF5qZL_mA2AORwVQ5u-35" style="edgeStyle=orthogonalEdgeStyle;rounded=0;orthogonalLoop=1;jettySize=auto;html=1;exitX=0;exitY=0.5;exitDx=0;exitDy=0;strokeColor=#007FFF;" parent="1" source="K2BF5qZL_mA2AORwVQ5u-31" edge="1">
          <mxGeometry relative="1" as="geometry">
            <mxPoint x="1076" y="390.28" as="sourcePoint" />
            <mxPoint x="960" y="395" as="targetPoint" />
            <Array as="points">
              <mxPoint x="960" y="395" />
            </Array>
          </mxGeometry>
        </mxCell>
        <mxCell id="K2BF5qZL_mA2AORwVQ5u-41" value="" style="endArrow=classic;html=1;rounded=0;entryX=0;entryY=0.5;entryDx=0;entryDy=0;strokeColor=#FF0000;" parent="1" target="K2BF5qZL_mA2AORwVQ5u-22" edge="1">
          <mxGeometry width="50" height="50" relative="1" as="geometry">
            <mxPoint x="720" y="240" as="sourcePoint" />
            <mxPoint x="760" y="300" as="targetPoint" />
            <Array as="points">
              <mxPoint x="720" y="300" />
              <mxPoint x="720" y="350" />
              <mxPoint x="740" y="350" />
            </Array>
          </mxGeometry>
        </mxCell>
        <mxCell id="K2BF5qZL_mA2AORwVQ5u-42" value="GND" style="text;html=1;align=center;verticalAlign=middle;whiteSpace=wrap;rounded=0;" parent="1" vertex="1">
          <mxGeometry x="770" y="627.5" width="20" height="5" as="geometry" />
        </mxCell>
        <mxCell id="K2BF5qZL_mA2AORwVQ5u-43" value="VCC" style="text;html=1;align=center;verticalAlign=middle;whiteSpace=wrap;rounded=0;" parent="1" vertex="1">
          <mxGeometry x="810" y="625" width="40" height="10" as="geometry" />
        </mxCell>
        <mxCell id="K2BF5qZL_mA2AORwVQ5u-46" value="VCC" style="text;html=1;align=center;verticalAlign=middle;whiteSpace=wrap;rounded=0;" parent="1" vertex="1">
          <mxGeometry x="1080" y="345" width="40" height="10" as="geometry" />
        </mxCell>
        <mxCell id="K2BF5qZL_mA2AORwVQ5u-47" value="GND" style="text;html=1;align=center;verticalAlign=middle;whiteSpace=wrap;rounded=0;" parent="1" vertex="1">
          <mxGeometry x="1090" y="367.5" width="20" height="10" as="geometry" />
        </mxCell>
        <mxCell id="K2BF5qZL_mA2AORwVQ5u-49" style="edgeStyle=orthogonalEdgeStyle;rounded=0;orthogonalLoop=1;jettySize=auto;html=1;exitX=0;exitY=0.25;exitDx=0;exitDy=0;" parent="1" source="K2BF5qZL_mA2AORwVQ5u-30" edge="1">
          <mxGeometry relative="1" as="geometry">
            <mxPoint x="1010" y="280" as="targetPoint" />
          </mxGeometry>
        </mxCell>
        <mxCell id="K2BF5qZL_mA2AORwVQ5u-50" value="" style="endArrow=classic;html=1;rounded=0;entryX=0;entryY=0.5;entryDx=0;entryDy=0;strokeColor=#FF0000;" parent="1" target="K2BF5qZL_mA2AORwVQ5u-46" edge="1">
          <mxGeometry width="50" height="50" relative="1" as="geometry">
            <mxPoint x="1040" y="240" as="sourcePoint" />
            <mxPoint x="1040" y="370" as="targetPoint" />
            <Array as="points">
              <mxPoint x="1040" y="350" />
            </Array>
          </mxGeometry>
        </mxCell>
        <mxCell id="K2BF5qZL_mA2AORwVQ5u-51" value="" style="endArrow=classic;html=1;rounded=0;" parent="1" edge="1">
          <mxGeometry width="50" height="50" relative="1" as="geometry">
            <mxPoint x="758" y="370" as="sourcePoint" />
            <mxPoint x="690" y="280" as="targetPoint" />
            <Array as="points">
              <mxPoint x="690" y="370" />
            </Array>
          </mxGeometry>
        </mxCell>
        <mxCell id="K2BF5qZL_mA2AORwVQ5u-52" value="12V" style="text;html=1;align=center;verticalAlign=middle;whiteSpace=wrap;rounded=0;" parent="1" vertex="1">
          <mxGeometry x="393" y="220" width="40" height="20" as="geometry" />
        </mxCell>
        <mxCell id="K2BF5qZL_mA2AORwVQ5u-53" value="5V" style="text;html=1;align=center;verticalAlign=middle;whiteSpace=wrap;rounded=0;" parent="1" vertex="1">
          <mxGeometry x="580" y="210" width="40" height="20" as="geometry" />
        </mxCell>
        <mxCell id="K2BF5qZL_mA2AORwVQ5u-55" value="5V" style="text;html=1;align=center;verticalAlign=middle;whiteSpace=wrap;rounded=0;" parent="1" vertex="1">
          <mxGeometry x="1630" y="220" width="60" height="30" as="geometry" />
        </mxCell>
        <mxCell id="K2BF5qZL_mA2AORwVQ5u-56" value="GND" style="text;html=1;align=center;verticalAlign=middle;whiteSpace=wrap;rounded=0;" parent="1" vertex="1">
          <mxGeometry x="1630" y="260" width="60" height="30" as="geometry" />
        </mxCell>
        <mxCell id="K2BF5qZL_mA2AORwVQ5u-58" value="&lt;font style=&quot;font-size: 14px;&quot;&gt;&lt;b&gt;Jetson&lt;/b&gt;&lt;/font&gt;" style="whiteSpace=wrap;html=1;aspect=fixed;" parent="1" vertex="1">
          <mxGeometry x="1320" y="340" width="140" height="140" as="geometry" />
        </mxCell>
        <mxCell id="K2BF5qZL_mA2AORwVQ5u-61" value="VCC" style="text;html=1;align=center;verticalAlign=middle;whiteSpace=wrap;rounded=0;" parent="1" vertex="1">
          <mxGeometry x="1320" y="342.5" width="40" height="20" as="geometry" />
        </mxCell>
        <mxCell id="K2BF5qZL_mA2AORwVQ5u-64" value="GND" style="text;html=1;align=center;verticalAlign=middle;whiteSpace=wrap;rounded=0;" parent="1" vertex="1">
          <mxGeometry x="1325" y="367.5" width="30" height="20" as="geometry" />
        </mxCell>
        <mxCell id="K2BF5qZL_mA2AORwVQ5u-68" value="&lt;b&gt;&lt;font style=&quot;font-size: 14px;&quot;&gt;CÃ¢mera&lt;/font&gt;&lt;/b&gt;" style="whiteSpace=wrap;html=1;aspect=fixed;" parent="1" vertex="1">
          <mxGeometry x="1490" y="340" width="80" height="80" as="geometry" />
        </mxCell>
        <mxCell id="K2BF5qZL_mA2AORwVQ5u-71" style="edgeStyle=orthogonalEdgeStyle;rounded=0;orthogonalLoop=1;jettySize=auto;html=1;exitX=1;exitY=0.5;exitDx=0;exitDy=0;strokeColor=#007FFF;" parent="1" source="K2BF5qZL_mA2AORwVQ5u-69" edge="1">
          <mxGeometry relative="1" as="geometry">
            <mxPoint x="1490" y="360" as="targetPoint" />
          </mxGeometry>
        </mxCell>
        <mxCell id="K2BF5qZL_mA2AORwVQ5u-69" value="USB" style="text;html=1;align=center;verticalAlign=middle;whiteSpace=wrap;rounded=0;" parent="1" vertex="1">
          <mxGeometry x="1430" y="350" width="30" height="20" as="geometry" />
        </mxCell>
        <mxCell id="K2BF5qZL_mA2AORwVQ5u-80" value="" style="endArrow=classic;html=1;rounded=0;exitX=0;exitY=0.5;exitDx=0;exitDy=0;" parent="1" source="K2BF5qZL_mA2AORwVQ5u-64" edge="1">
          <mxGeometry width="50" height="50" relative="1" as="geometry">
            <mxPoint x="1080" y="460" as="sourcePoint" />
            <mxPoint x="1260" y="280" as="targetPoint" />
            <Array as="points">
              <mxPoint x="1260" y="378" />
              <mxPoint x="1260" y="330" />
            </Array>
          </mxGeometry>
        </mxCell>
        <mxCell id="K2BF5qZL_mA2AORwVQ5u-82" value="" style="endArrow=classic;html=1;rounded=0;entryX=0;entryY=0.5;entryDx=0;entryDy=0;strokeColor=#FF0000;" parent="1" target="K2BF5qZL_mA2AORwVQ5u-61" edge="1">
          <mxGeometry width="50" height="50" relative="1" as="geometry">
            <mxPoint x="1290" y="240" as="sourcePoint" />
            <mxPoint x="1130" y="410" as="targetPoint" />
            <Array as="points">
              <mxPoint x="1290" y="353" />
            </Array>
          </mxGeometry>
        </mxCell>
        <mxCell id="K2BF5qZL_mA2AORwVQ5u-84" value="Ethernet" style="text;html=1;align=center;verticalAlign=middle;whiteSpace=wrap;rounded=0;" parent="1" vertex="1">
          <mxGeometry x="910" y="490" width="40" height="22.5" as="geometry" />
        </mxCell>
        <mxCell id="K2BF5qZL_mA2AORwVQ5u-85" value="Ethernet" style="text;html=1;align=center;verticalAlign=middle;whiteSpace=wrap;rounded=0;" parent="1" vertex="1">
          <mxGeometry x="1330" y="450" width="30" height="20" as="geometry" />
        </mxCell>
        <mxCell id="K2BF5qZL_mA2AORwVQ5u-87" value="" style="endArrow=classic;startArrow=classic;html=1;rounded=0;exitX=0.999;exitY=0.534;exitDx=0;exitDy=0;exitPerimeter=0;entryX=-0.011;entryY=0.86;entryDx=0;entryDy=0;entryPerimeter=0;strokeColor=#007FFF;" parent="1" source="K2BF5qZL_mA2AORwVQ5u-21" target="K2BF5qZL_mA2AORwVQ5u-58" edge="1">
          <mxGeometry width="50" height="50" relative="1" as="geometry">
            <mxPoint x="959.9999999999995" y="523.2700000000001" as="sourcePoint" />
            <mxPoint x="1315.3399999999997" y="396.73000000000013" as="targetPoint" />
            <Array as="points">
              <mxPoint x="1288" y="500" />
              <mxPoint x="1288" y="460" />
            </Array>
          </mxGeometry>
        </mxCell>
        <mxCell id="K2BF5qZL_mA2AORwVQ5u-94" value="&lt;b&gt;&lt;font style=&quot;font-size: 14px;&quot;&gt;ESC&lt;/font&gt;&lt;/b&gt;" style="rounded=0;whiteSpace=wrap;html=1;" parent="1" vertex="1">
          <mxGeometry x="1791" y="340" width="150" height="100" as="geometry" />
        </mxCell>
        <mxCell id="K2BF5qZL_mA2AORwVQ5u-95" value="VCC" style="text;html=1;align=center;verticalAlign=middle;whiteSpace=wrap;rounded=0;" parent="1" vertex="1">
          <mxGeometry x="1791" y="340" width="50" height="20" as="geometry" />
        </mxCell>
        <mxCell id="K2BF5qZL_mA2AORwVQ5u-96" value="GND" style="text;html=1;align=center;verticalAlign=middle;whiteSpace=wrap;rounded=0;" parent="1" vertex="1">
          <mxGeometry x="1791" y="365" width="50" height="20" as="geometry" />
        </mxCell>
        <mxCell id="K2BF5qZL_mA2AORwVQ5u-97" value="PWM" style="text;html=1;align=center;verticalAlign=middle;whiteSpace=wrap;rounded=0;" parent="1" vertex="1">
          <mxGeometry x="1791" y="392.5" width="50" height="20" as="geometry" />
        </mxCell>
        <mxCell id="K2BF5qZL_mA2AORwVQ5u-98" value="GND" style="text;html=1;align=center;verticalAlign=middle;whiteSpace=wrap;rounded=0;" parent="1" vertex="1">
          <mxGeometry x="1791" y="420" width="50" height="20" as="geometry" />
        </mxCell>
        <mxCell id="K2BF5qZL_mA2AORwVQ5u-103" value="Phase-A" style="text;html=1;align=center;verticalAlign=middle;whiteSpace=wrap;rounded=0;" parent="1" vertex="1">
          <mxGeometry x="1891" y="352.5" width="50" height="10" as="geometry" />
        </mxCell>
        <mxCell id="K2BF5qZL_mA2AORwVQ5u-104" value="Phase-B" style="text;html=1;align=center;verticalAlign=middle;whiteSpace=wrap;rounded=0;" parent="1" vertex="1">
          <mxGeometry x="1891" y="382.5" width="50" height="10" as="geometry" />
        </mxCell>
        <mxCell id="K2BF5qZL_mA2AORwVQ5u-105" value="Phase-C" style="text;html=1;align=center;verticalAlign=middle;whiteSpace=wrap;rounded=0;" parent="1" vertex="1">
          <mxGeometry x="1887" y="412.5" width="58" height="15" as="geometry" />
        </mxCell>
        <mxCell id="K2BF5qZL_mA2AORwVQ5u-114" value="&lt;b&gt;&lt;font style=&quot;font-size: 14px;&quot;&gt;ESC&lt;/font&gt;&lt;/b&gt;" style="rounded=0;whiteSpace=wrap;html=1;" parent="1" vertex="1">
          <mxGeometry x="1791" y="460" width="150" height="100" as="geometry" />
        </mxCell>
        <mxCell id="K2BF5qZL_mA2AORwVQ5u-115" value="VCC" style="text;html=1;align=center;verticalAlign=middle;whiteSpace=wrap;rounded=0;" parent="1" vertex="1">
          <mxGeometry x="1791" y="460" width="50" height="20" as="geometry" />
        </mxCell>
        <mxCell id="K2BF5qZL_mA2AORwVQ5u-116" value="GND" style="text;html=1;align=center;verticalAlign=middle;whiteSpace=wrap;rounded=0;" parent="1" vertex="1">
          <mxGeometry x="1791" y="485" width="50" height="20" as="geometry" />
        </mxCell>
        <mxCell id="K2BF5qZL_mA2AORwVQ5u-117" value="PWM" style="text;html=1;align=center;verticalAlign=middle;whiteSpace=wrap;rounded=0;" parent="1" vertex="1">
          <mxGeometry x="1791" y="512.5" width="50" height="20" as="geometry" />
        </mxCell>
        <mxCell id="K2BF5qZL_mA2AORwVQ5u-118" value="GND" style="text;html=1;align=center;verticalAlign=middle;whiteSpace=wrap;rounded=0;" parent="1" vertex="1">
          <mxGeometry x="1791" y="540" width="50" height="20" as="geometry" />
        </mxCell>
        <mxCell id="K2BF5qZL_mA2AORwVQ5u-119" value="Phase-A" style="text;html=1;align=center;verticalAlign=middle;whiteSpace=wrap;rounded=0;" parent="1" vertex="1">
          <mxGeometry x="1891" y="472.5" width="50" height="10" as="geometry" />
        </mxCell>
        <mxCell id="K2BF5qZL_mA2AORwVQ5u-120" value="Phase-B" style="text;html=1;align=center;verticalAlign=middle;whiteSpace=wrap;rounded=0;" parent="1" vertex="1">
          <mxGeometry x="1891" y="502.5" width="50" height="10" as="geometry" />
        </mxCell>
        <mxCell id="K2BF5qZL_mA2AORwVQ5u-121" value="Phase-C" style="text;html=1;align=center;verticalAlign=middle;whiteSpace=wrap;rounded=0;" parent="1" vertex="1">
          <mxGeometry x="1887" y="532.5" width="58" height="15" as="geometry" />
        </mxCell>
        <mxCell id="K2BF5qZL_mA2AORwVQ5u-123" value="&lt;b&gt;&lt;font style=&quot;font-size: 14px;&quot;&gt;ESC&lt;/font&gt;&lt;/b&gt;" style="rounded=0;whiteSpace=wrap;html=1;" parent="1" vertex="1">
          <mxGeometry x="1791" y="580" width="150" height="100" as="geometry" />
        </mxCell>
        <mxCell id="K2BF5qZL_mA2AORwVQ5u-124" value="VCC" style="text;html=1;align=center;verticalAlign=middle;whiteSpace=wrap;rounded=0;" parent="1" vertex="1">
          <mxGeometry x="1791" y="580" width="50" height="20" as="geometry" />
        </mxCell>
        <mxCell id="K2BF5qZL_mA2AORwVQ5u-125" value="GND" style="text;html=1;align=center;verticalAlign=middle;whiteSpace=wrap;rounded=0;" parent="1" vertex="1">
          <mxGeometry x="1791" y="605" width="50" height="20" as="geometry" />
        </mxCell>
        <mxCell id="K2BF5qZL_mA2AORwVQ5u-126" value="PWM" style="text;html=1;align=center;verticalAlign=middle;whiteSpace=wrap;rounded=0;" parent="1" vertex="1">
          <mxGeometry x="1791" y="632.5" width="50" height="20" as="geometry" />
        </mxCell>
        <mxCell id="K2BF5qZL_mA2AORwVQ5u-127" value="GND" style="text;html=1;align=center;verticalAlign=middle;whiteSpace=wrap;rounded=0;" parent="1" vertex="1">
          <mxGeometry x="1791" y="660" width="50" height="20" as="geometry" />
        </mxCell>
        <mxCell id="K2BF5qZL_mA2AORwVQ5u-128" value="Phase-A" style="text;html=1;align=center;verticalAlign=middle;whiteSpace=wrap;rounded=0;" parent="1" vertex="1">
          <mxGeometry x="1891" y="592.5" width="50" height="10" as="geometry" />
        </mxCell>
        <mxCell id="K2BF5qZL_mA2AORwVQ5u-129" value="Phase-B" style="text;html=1;align=center;verticalAlign=middle;whiteSpace=wrap;rounded=0;" parent="1" vertex="1">
          <mxGeometry x="1891" y="622.5" width="50" height="10" as="geometry" />
        </mxCell>
        <mxCell id="K2BF5qZL_mA2AORwVQ5u-130" value="Phase-C" style="text;html=1;align=center;verticalAlign=middle;whiteSpace=wrap;rounded=0;" parent="1" vertex="1">
          <mxGeometry x="1887" y="652.5" width="58" height="15" as="geometry" />
        </mxCell>
        <mxCell id="K2BF5qZL_mA2AORwVQ5u-131" value="&lt;b&gt;&lt;font style=&quot;font-size: 14px;&quot;&gt;ESC&lt;/font&gt;&lt;/b&gt;" style="rounded=0;whiteSpace=wrap;html=1;" parent="1" vertex="1">
          <mxGeometry x="1791" y="700" width="150" height="100" as="geometry" />
        </mxCell>
        <mxCell id="K2BF5qZL_mA2AORwVQ5u-132" value="VCC" style="text;html=1;align=center;verticalAlign=middle;whiteSpace=wrap;rounded=0;" parent="1" vertex="1">
          <mxGeometry x="1791" y="700" width="50" height="20" as="geometry" />
        </mxCell>
        <mxCell id="K2BF5qZL_mA2AORwVQ5u-133" value="GND" style="text;html=1;align=center;verticalAlign=middle;whiteSpace=wrap;rounded=0;" parent="1" vertex="1">
          <mxGeometry x="1791" y="725" width="50" height="20" as="geometry" />
        </mxCell>
        <mxCell id="K2BF5qZL_mA2AORwVQ5u-134" value="PWM" style="text;html=1;align=center;verticalAlign=middle;whiteSpace=wrap;rounded=0;" parent="1" vertex="1">
          <mxGeometry x="1791" y="752.5" width="50" height="20" as="geometry" />
        </mxCell>
        <mxCell id="K2BF5qZL_mA2AORwVQ5u-135" value="GND" style="text;html=1;align=center;verticalAlign=middle;whiteSpace=wrap;rounded=0;" parent="1" vertex="1">
          <mxGeometry x="1791" y="780" width="50" height="20" as="geometry" />
        </mxCell>
        <mxCell id="K2BF5qZL_mA2AORwVQ5u-136" value="Phase-A" style="text;html=1;align=center;verticalAlign=middle;whiteSpace=wrap;rounded=0;" parent="1" vertex="1">
          <mxGeometry x="1891" y="712.5" width="50" height="10" as="geometry" />
        </mxCell>
        <mxCell id="K2BF5qZL_mA2AORwVQ5u-137" value="Phase-B" style="text;html=1;align=center;verticalAlign=middle;whiteSpace=wrap;rounded=0;" parent="1" vertex="1">
          <mxGeometry x="1891" y="742.5" width="50" height="10" as="geometry" />
        </mxCell>
        <mxCell id="K2BF5qZL_mA2AORwVQ5u-138" value="Phase-C" style="text;html=1;align=center;verticalAlign=middle;whiteSpace=wrap;rounded=0;" parent="1" vertex="1">
          <mxGeometry x="1887" y="772.5" width="58" height="15" as="geometry" />
        </mxCell>
        <mxCell id="K2BF5qZL_mA2AORwVQ5u-139" value="&lt;b&gt;&lt;font style=&quot;font-size: 14px;&quot;&gt;ESC&lt;/font&gt;&lt;/b&gt;" style="rounded=0;whiteSpace=wrap;html=1;" parent="1" vertex="1">
          <mxGeometry x="1791" y="820" width="150" height="100" as="geometry" />
        </mxCell>
        <mxCell id="K2BF5qZL_mA2AORwVQ5u-140" value="VCC" style="text;html=1;align=center;verticalAlign=middle;whiteSpace=wrap;rounded=0;" parent="1" vertex="1">
          <mxGeometry x="1791" y="820" width="50" height="20" as="geometry" />
        </mxCell>
        <mxCell id="K2BF5qZL_mA2AORwVQ5u-141" value="GND" style="text;html=1;align=center;verticalAlign=middle;whiteSpace=wrap;rounded=0;" parent="1" vertex="1">
          <mxGeometry x="1791" y="845" width="50" height="20" as="geometry" />
        </mxCell>
        <mxCell id="K2BF5qZL_mA2AORwVQ5u-142" value="PWM" style="text;html=1;align=center;verticalAlign=middle;whiteSpace=wrap;rounded=0;" parent="1" vertex="1">
          <mxGeometry x="1791" y="872.5" width="50" height="20" as="geometry" />
        </mxCell>
        <mxCell id="K2BF5qZL_mA2AORwVQ5u-143" value="GND" style="text;html=1;align=center;verticalAlign=middle;whiteSpace=wrap;rounded=0;" parent="1" vertex="1">
          <mxGeometry x="1791" y="900" width="50" height="20" as="geometry" />
        </mxCell>
        <mxCell id="K2BF5qZL_mA2AORwVQ5u-144" value="Phase-A" style="text;html=1;align=center;verticalAlign=middle;whiteSpace=wrap;rounded=0;" parent="1" vertex="1">
          <mxGeometry x="1891" y="832.5" width="50" height="10" as="geometry" />
        </mxCell>
        <mxCell id="K2BF5qZL_mA2AORwVQ5u-145" value="Phase-B" style="text;html=1;align=center;verticalAlign=middle;whiteSpace=wrap;rounded=0;" parent="1" vertex="1">
          <mxGeometry x="1891" y="862.5" width="50" height="10" as="geometry" />
        </mxCell>
        <mxCell id="K2BF5qZL_mA2AORwVQ5u-146" value="Phase-C" style="text;html=1;align=center;verticalAlign=middle;whiteSpace=wrap;rounded=0;" parent="1" vertex="1">
          <mxGeometry x="1887" y="892.5" width="58" height="15" as="geometry" />
        </mxCell>
        <mxCell id="K2BF5qZL_mA2AORwVQ5u-147" value="&lt;b&gt;&lt;font style=&quot;font-size: 14px;&quot;&gt;ESC&lt;/font&gt;&lt;/b&gt;" style="rounded=0;whiteSpace=wrap;html=1;" parent="1" vertex="1">
          <mxGeometry x="1791" y="940" width="150" height="100" as="geometry" />
        </mxCell>
        <mxCell id="K2BF5qZL_mA2AORwVQ5u-148" value="VCC" style="text;html=1;align=center;verticalAlign=middle;whiteSpace=wrap;rounded=0;" parent="1" vertex="1">
          <mxGeometry x="1791" y="940" width="50" height="20" as="geometry" />
        </mxCell>
        <mxCell id="K2BF5qZL_mA2AORwVQ5u-149" value="GND" style="text;html=1;align=center;verticalAlign=middle;whiteSpace=wrap;rounded=0;" parent="1" vertex="1">
          <mxGeometry x="1791" y="965" width="50" height="20" as="geometry" />
        </mxCell>
        <mxCell id="K2BF5qZL_mA2AORwVQ5u-150" value="PWM" style="text;html=1;align=center;verticalAlign=middle;whiteSpace=wrap;rounded=0;" parent="1" vertex="1">
          <mxGeometry x="1791" y="992.5" width="50" height="20" as="geometry" />
        </mxCell>
        <mxCell id="K2BF5qZL_mA2AORwVQ5u-151" value="GND" style="text;html=1;align=center;verticalAlign=middle;whiteSpace=wrap;rounded=0;" parent="1" vertex="1">
          <mxGeometry x="1791" y="1020" width="50" height="20" as="geometry" />
        </mxCell>
        <mxCell id="K2BF5qZL_mA2AORwVQ5u-152" value="Phase-A" style="text;html=1;align=center;verticalAlign=middle;whiteSpace=wrap;rounded=0;" parent="1" vertex="1">
          <mxGeometry x="1891" y="952.5" width="50" height="10" as="geometry" />
        </mxCell>
        <mxCell id="K2BF5qZL_mA2AORwVQ5u-153" value="Phase-B" style="text;html=1;align=center;verticalAlign=middle;whiteSpace=wrap;rounded=0;" parent="1" vertex="1">
          <mxGeometry x="1891" y="982.5" width="50" height="10" as="geometry" />
        </mxCell>
        <mxCell id="K2BF5qZL_mA2AORwVQ5u-154" value="Phase-C" style="text;html=1;align=center;verticalAlign=middle;whiteSpace=wrap;rounded=0;" parent="1" vertex="1">
          <mxGeometry x="1887" y="1012.5" width="58" height="15" as="geometry" />
        </mxCell>
        <mxCell id="K2BF5qZL_mA2AORwVQ5u-158" value="" style="endArrow=classic;html=1;rounded=0;entryX=0;entryY=0.5;entryDx=0;entryDy=0;strokeColor=#FF0000;" parent="1" target="K2BF5qZL_mA2AORwVQ5u-148" edge="1">
          <mxGeometry width="50" height="50" relative="1" as="geometry">
            <mxPoint x="1750" y="160" as="sourcePoint" />
            <mxPoint x="1770" y="870" as="targetPoint" />
            <Array as="points">
              <mxPoint x="1750" y="950" />
            </Array>
          </mxGeometry>
        </mxCell>
        <mxCell id="K2BF5qZL_mA2AORwVQ5u-161" value="" style="endArrow=classic;html=1;rounded=0;exitX=0;exitY=0.5;exitDx=0;exitDy=0;" parent="1" source="K2BF5qZL_mA2AORwVQ5u-149" edge="1">
          <mxGeometry width="50" height="50" relative="1" as="geometry">
            <mxPoint x="1690" y="410" as="sourcePoint" />
            <mxPoint x="1720" y="200" as="targetPoint" />
            <Array as="points">
              <mxPoint x="1720" y="975" />
            </Array>
          </mxGeometry>
        </mxCell>
        <mxCell id="K2BF5qZL_mA2AORwVQ5u-163" value="" style="endArrow=classic;html=1;rounded=0;entryX=0;entryY=0.5;entryDx=0;entryDy=0;strokeColor=#FF0000;" parent="1" target="K2BF5qZL_mA2AORwVQ5u-95" edge="1">
          <mxGeometry width="50" height="50" relative="1" as="geometry">
            <mxPoint x="1751" y="350" as="sourcePoint" />
            <mxPoint x="1811" y="450" as="targetPoint" />
          </mxGeometry>
        </mxCell>
        <mxCell id="K2BF5qZL_mA2AORwVQ5u-164" value="" style="endArrow=classic;html=1;rounded=0;entryX=0;entryY=0.5;entryDx=0;entryDy=0;strokeColor=#FF0000;" parent="1" target="K2BF5qZL_mA2AORwVQ5u-115" edge="1">
          <mxGeometry width="50" height="50" relative="1" as="geometry">
            <mxPoint x="1751" y="470" as="sourcePoint" />
            <mxPoint x="1811" y="450" as="targetPoint" />
          </mxGeometry>
        </mxCell>
        <mxCell id="K2BF5qZL_mA2AORwVQ5u-165" value="" style="endArrow=classic;html=1;rounded=0;entryX=0;entryY=0.5;entryDx=0;entryDy=0;strokeColor=#FF0000;" parent="1" target="K2BF5qZL_mA2AORwVQ5u-124" edge="1">
          <mxGeometry width="50" height="50" relative="1" as="geometry">
            <mxPoint x="1751" y="590" as="sourcePoint" />
            <mxPoint x="1811" y="450" as="targetPoint" />
          </mxGeometry>
        </mxCell>
        <mxCell id="K2BF5qZL_mA2AORwVQ5u-166" value="" style="endArrow=classic;html=1;rounded=0;entryX=0;entryY=0.5;entryDx=0;entryDy=0;strokeColor=#FF0000;" parent="1" target="K2BF5qZL_mA2AORwVQ5u-132" edge="1">
          <mxGeometry width="50" height="50" relative="1" as="geometry">
            <mxPoint x="1751" y="710" as="sourcePoint" />
            <mxPoint x="1811" y="730" as="targetPoint" />
          </mxGeometry>
        </mxCell>
        <mxCell id="K2BF5qZL_mA2AORwVQ5u-167" value="" style="endArrow=classic;html=1;rounded=0;entryX=0;entryY=0.5;entryDx=0;entryDy=0;strokeColor=#FF0000;" parent="1" target="K2BF5qZL_mA2AORwVQ5u-140" edge="1">
          <mxGeometry width="50" height="50" relative="1" as="geometry">
            <mxPoint x="1751" y="830" as="sourcePoint" />
            <mxPoint x="1811" y="730" as="targetPoint" />
          </mxGeometry>
        </mxCell>
        <mxCell id="K2BF5qZL_mA2AORwVQ5u-168" value="" style="endArrow=none;html=1;rounded=0;exitX=0;exitY=0.5;exitDx=0;exitDy=0;" parent="1" edge="1">
          <mxGeometry width="50" height="50" relative="1" as="geometry">
            <mxPoint x="1791" y="855.04" as="sourcePoint" />
            <mxPoint x="1761" y="855.04" as="targetPoint" />
          </mxGeometry>
        </mxCell>
        <mxCell id="K2BF5qZL_mA2AORwVQ5u-169" value="" style="endArrow=none;html=1;rounded=0;" parent="1" edge="1">
          <mxGeometry width="50" height="50" relative="1" as="geometry">
            <mxPoint x="1741" y="855" as="sourcePoint" />
            <mxPoint x="1721" y="855.04" as="targetPoint" />
          </mxGeometry>
        </mxCell>
        <mxCell id="K2BF5qZL_mA2AORwVQ5u-185" value="" style="endArrow=none;html=1;rounded=0;exitX=0;exitY=0.5;exitDx=0;exitDy=0;" parent="1" edge="1">
          <mxGeometry width="50" height="50" relative="1" as="geometry">
            <mxPoint x="1791" y="735.04" as="sourcePoint" />
            <mxPoint x="1761" y="735.04" as="targetPoint" />
          </mxGeometry>
        </mxCell>
        <mxCell id="K2BF5qZL_mA2AORwVQ5u-186" value="" style="endArrow=none;html=1;rounded=0;" parent="1" edge="1">
          <mxGeometry width="50" height="50" relative="1" as="geometry">
            <mxPoint x="1741" y="735" as="sourcePoint" />
            <mxPoint x="1721" y="735.04" as="targetPoint" />
          </mxGeometry>
        </mxCell>
        <mxCell id="K2BF5qZL_mA2AORwVQ5u-187" value="" style="endArrow=none;html=1;rounded=0;exitX=0;exitY=0.5;exitDx=0;exitDy=0;" parent="1" edge="1">
          <mxGeometry width="50" height="50" relative="1" as="geometry">
            <mxPoint x="1791" y="615.04" as="sourcePoint" />
            <mxPoint x="1761" y="615.04" as="targetPoint" />
          </mxGeometry>
        </mxCell>
        <mxCell id="K2BF5qZL_mA2AORwVQ5u-188" value="" style="endArrow=none;html=1;rounded=0;" parent="1" edge="1">
          <mxGeometry width="50" height="50" relative="1" as="geometry">
            <mxPoint x="1741" y="615" as="sourcePoint" />
            <mxPoint x="1721" y="615.04" as="targetPoint" />
          </mxGeometry>
        </mxCell>
        <mxCell id="K2BF5qZL_mA2AORwVQ5u-189" value="" style="endArrow=none;html=1;rounded=0;exitX=0;exitY=0.5;exitDx=0;exitDy=0;" parent="1" edge="1">
          <mxGeometry width="50" height="50" relative="1" as="geometry">
            <mxPoint x="1791" y="495.03999999999996" as="sourcePoint" />
            <mxPoint x="1761" y="495.03999999999996" as="targetPoint" />
          </mxGeometry>
        </mxCell>
        <mxCell id="K2BF5qZL_mA2AORwVQ5u-190" value="" style="endArrow=none;html=1;rounded=0;" parent="1" edge="1">
          <mxGeometry width="50" height="50" relative="1" as="geometry">
            <mxPoint x="1741" y="495" as="sourcePoint" />
            <mxPoint x="1721" y="495.03999999999996" as="targetPoint" />
          </mxGeometry>
        </mxCell>
        <mxCell id="K2BF5qZL_mA2AORwVQ5u-191" value="" style="endArrow=none;html=1;rounded=0;exitX=0;exitY=0.5;exitDx=0;exitDy=0;" parent="1" edge="1">
          <mxGeometry width="50" height="50" relative="1" as="geometry">
            <mxPoint x="1791" y="374.60999999999996" as="sourcePoint" />
            <mxPoint x="1761" y="374.60999999999996" as="targetPoint" />
          </mxGeometry>
        </mxCell>
        <mxCell id="K2BF5qZL_mA2AORwVQ5u-192" value="" style="endArrow=none;html=1;rounded=0;" parent="1" edge="1">
          <mxGeometry width="50" height="50" relative="1" as="geometry">
            <mxPoint x="1741" y="374" as="sourcePoint" />
            <mxPoint x="1721" y="374" as="targetPoint" />
          </mxGeometry>
        </mxCell>
        <mxCell id="K2BF5qZL_mA2AORwVQ5u-194" value="" style="endArrow=classic;html=1;rounded=0;strokeColor=#FF0000;" parent="1" edge="1">
          <mxGeometry width="50" height="50" relative="1" as="geometry">
            <mxPoint x="360" y="240" as="sourcePoint" />
            <mxPoint x="1880" y="160" as="targetPoint" />
            <Array as="points">
              <mxPoint x="360" y="160" />
            </Array>
          </mxGeometry>
        </mxCell>
        <mxCell id="K2BF5qZL_mA2AORwVQ5u-196" value="12V" style="text;html=1;align=center;verticalAlign=middle;whiteSpace=wrap;rounded=0;" parent="1" vertex="1">
          <mxGeometry x="1900" y="150" width="40" height="20" as="geometry" />
        </mxCell>
        <mxCell id="K2BF5qZL_mA2AORwVQ5u-197" value="" style="endArrow=classic;html=1;rounded=0;fillColor=#FF0000;" parent="1" edge="1">
          <mxGeometry width="50" height="50" relative="1" as="geometry">
            <mxPoint x="380" y="270" as="sourcePoint" />
            <mxPoint x="1883.368498149671" y="200" as="targetPoint" />
            <Array as="points">
              <mxPoint x="380" y="200" />
            </Array>
          </mxGeometry>
        </mxCell>
        <mxCell id="HZWEALRkoynHie87wn8H-20" value="&amp;nbsp;" style="edgeLabel;html=1;align=center;verticalAlign=middle;resizable=0;points=[];" parent="K2BF5qZL_mA2AORwVQ5u-197" vertex="1" connectable="0">
          <mxGeometry x="-0.9623" y="1" relative="1" as="geometry">
            <mxPoint as="offset" />
          </mxGeometry>
        </mxCell>
        <mxCell id="HZWEALRkoynHie87wn8H-4" value="" style="endArrow=classic;html=1;rounded=0;exitX=0.997;exitY=0.286;exitDx=0;exitDy=0;exitPerimeter=0;strokeColor=#FF0000;" parent="1" source="K2BF5qZL_mA2AORwVQ5u-10" edge="1">
          <mxGeometry width="50" height="50" relative="1" as="geometry">
            <mxPoint x="1010" y="220" as="sourcePoint" />
            <mxPoint x="1640" y="240" as="targetPoint" />
          </mxGeometry>
        </mxCell>
        <mxCell id="HZWEALRkoynHie87wn8H-5" value="GND" style="text;html=1;align=center;verticalAlign=middle;resizable=0;points=[];autosize=1;strokeColor=none;fillColor=none;" parent="1" vertex="1">
          <mxGeometry x="1895" y="178" width="50" height="30" as="geometry" />
        </mxCell>
        <mxCell id="HZWEALRkoynHie87wn8H-6" value="12V" style="text;html=1;align=center;verticalAlign=middle;resizable=0;points=[];autosize=1;strokeColor=none;fillColor=none;" parent="1" vertex="1">
          <mxGeometry x="400" y="128" width="40" height="30" as="geometry" />
        </mxCell>
        <mxCell id="HZWEALRkoynHie87wn8H-8" value="GPI17" style="text;html=1;align=center;verticalAlign=middle;resizable=0;points=[];autosize=1;strokeColor=none;fillColor=none;" parent="1" vertex="1">
          <mxGeometry x="905" y="510" width="60" height="30" as="geometry" />
        </mxCell>
        <mxCell id="HZWEALRkoynHie87wn8H-9" value="GPI18" style="text;html=1;align=center;verticalAlign=middle;resizable=0;points=[];autosize=1;strokeColor=none;fillColor=none;" parent="1" vertex="1">
          <mxGeometry x="905" y="530" width="60" height="30" as="geometry" />
        </mxCell>
        <mxCell id="HZWEALRkoynHie87wn8H-10" value="GPI22" style="text;html=1;align=center;verticalAlign=middle;resizable=0;points=[];autosize=1;strokeColor=none;fillColor=none;" parent="1" vertex="1">
          <mxGeometry x="905" y="550" width="60" height="30" as="geometry" />
        </mxCell>
        <mxCell id="HZWEALRkoynHie87wn8H-11" value="GPI23" style="text;html=1;align=center;verticalAlign=middle;resizable=0;points=[];autosize=1;strokeColor=none;fillColor=none;" parent="1" vertex="1">
          <mxGeometry x="905" y="570" width="60" height="30" as="geometry" />
        </mxCell>
        <mxCell id="HZWEALRkoynHie87wn8H-12" value="GPI24" style="text;html=1;align=center;verticalAlign=middle;resizable=0;points=[];autosize=1;strokeColor=none;fillColor=none;" parent="1" vertex="1">
          <mxGeometry x="905" y="592.5" width="60" height="30" as="geometry" />
        </mxCell>
        <mxCell id="HZWEALRkoynHie87wn8H-13" value="GPI27" style="text;html=1;align=center;verticalAlign=middle;resizable=0;points=[];autosize=1;strokeColor=none;fillColor=none;" parent="1" vertex="1">
          <mxGeometry x="905" y="612.5" width="60" height="30" as="geometry" />
        </mxCell>
        <mxCell id="HZWEALRkoynHie87wn8H-14" value="" style="endArrow=classic;html=1;rounded=0;entryX=0.929;entryY=-0.016;entryDx=0;entryDy=0;entryPerimeter=0;strokeColor=#007FFF;" parent="1" target="HZWEALRkoynHie87wn8H-9" edge="1">
          <mxGeometry width="50" height="50" relative="1" as="geometry">
            <mxPoint x="1710" y="410" as="sourcePoint" />
            <mxPoint x="970" y="530" as="targetPoint" />
            <Array as="points">
              <mxPoint x="1600" y="410" />
              <mxPoint x="1600" y="530" />
            </Array>
          </mxGeometry>
        </mxCell>
        <mxCell id="HZWEALRkoynHie87wn8H-15" value="" style="endArrow=classic;html=1;rounded=0;entryX=0.929;entryY=0.001;entryDx=0;entryDy=0;entryPerimeter=0;strokeColor=#007FFF;" parent="1" target="HZWEALRkoynHie87wn8H-10" edge="1">
          <mxGeometry width="50" height="50" relative="1" as="geometry">
            <mxPoint x="1710" y="530" as="sourcePoint" />
            <mxPoint x="970" y="550" as="targetPoint" />
            <Array as="points">
              <mxPoint x="1620" y="529" />
              <mxPoint x="1620" y="550" />
            </Array>
          </mxGeometry>
        </mxCell>
        <mxCell id="HZWEALRkoynHie87wn8H-16" value="" style="endArrow=classic;html=1;rounded=0;entryX=0.919;entryY=-0.012;entryDx=0;entryDy=0;entryPerimeter=0;strokeColor=#007FFF;" parent="1" target="HZWEALRkoynHie87wn8H-11" edge="1">
          <mxGeometry width="50" height="50" relative="1" as="geometry">
            <mxPoint x="1710" y="650" as="sourcePoint" />
            <mxPoint x="970" y="570" as="targetPoint" />
            <Array as="points">
              <mxPoint x="1620" y="650" />
              <mxPoint x="1620" y="570" />
            </Array>
          </mxGeometry>
        </mxCell>
        <mxCell id="HZWEALRkoynHie87wn8H-17" value="" style="endArrow=classic;html=1;rounded=0;entryX=0.917;entryY=0.667;entryDx=0;entryDy=0;entryPerimeter=0;strokeColor=#007FFF;" parent="1" target="HZWEALRkoynHie87wn8H-11" edge="1">
          <mxGeometry width="50" height="50" relative="1" as="geometry">
            <mxPoint x="1710" y="770" as="sourcePoint" />
            <mxPoint x="1610" y="770" as="targetPoint" />
            <Array as="points">
              <mxPoint x="1600" y="770" />
              <mxPoint x="1600" y="590" />
            </Array>
          </mxGeometry>
        </mxCell>
        <mxCell id="HZWEALRkoynHie87wn8H-18" value="" style="endArrow=classic;html=1;rounded=0;entryX=0.917;entryY=0.583;entryDx=0;entryDy=0;entryPerimeter=0;strokeColor=#007FFF;" parent="1" target="HZWEALRkoynHie87wn8H-12" edge="1">
          <mxGeometry width="50" height="50" relative="1" as="geometry">
            <mxPoint x="1710" y="890" as="sourcePoint" />
            <mxPoint x="980" y="610" as="targetPoint" />
            <Array as="points">
              <mxPoint x="1580" y="890" />
              <mxPoint x="1580" y="610" />
            </Array>
          </mxGeometry>
        </mxCell>
        <mxCell id="HZWEALRkoynHie87wn8H-19" value="" style="endArrow=classic;html=1;rounded=0;exitX=-0.006;exitY=0.701;exitDx=0;exitDy=0;exitPerimeter=0;entryX=0.917;entryY=0.583;entryDx=0;entryDy=0;entryPerimeter=0;strokeColor=#007FFF;" parent="1" source="K2BF5qZL_mA2AORwVQ5u-147" target="HZWEALRkoynHie87wn8H-13" edge="1">
          <mxGeometry width="50" height="50" relative="1" as="geometry">
            <mxPoint x="1600" y="1040" as="sourcePoint" />
            <mxPoint x="980" y="630" as="targetPoint" />
            <Array as="points">
              <mxPoint x="1560" y="1010" />
              <mxPoint x="1560" y="630" />
            </Array>
          </mxGeometry>
        </mxCell>
        <mxCell id="HZWEALRkoynHie87wn8H-21" value="" style="endArrow=classic;html=1;rounded=0;exitX=0.996;exitY=0.281;exitDx=0;exitDy=0;exitPerimeter=0;entryX=-0.002;entryY=0.289;entryDx=0;entryDy=0;entryPerimeter=0;fillColor=#FF5E19;strokeColor=#FF0000;" parent="1" source="K2BF5qZL_mA2AORwVQ5u-2" target="K2BF5qZL_mA2AORwVQ5u-10" edge="1">
          <mxGeometry width="50" height="50" relative="1" as="geometry">
            <mxPoint x="490" y="290" as="sourcePoint" />
            <mxPoint x="540" y="240" as="targetPoint" />
          </mxGeometry>
        </mxCell>
        <mxCell id="HZWEALRkoynHie87wn8H-27" value="" style="endArrow=none;html=1;rounded=0;entryX=-0.006;entryY=0.862;entryDx=0;entryDy=0;entryPerimeter=0;strokeColor=#007FFF;" parent="1" target="K2BF5qZL_mA2AORwVQ5u-97" edge="1">
          <mxGeometry width="50" height="50" relative="1" as="geometry">
            <mxPoint x="1761" y="410" as="sourcePoint" />
            <mxPoint x="1781" y="410" as="targetPoint" />
          </mxGeometry>
        </mxCell>
        <mxCell id="HZWEALRkoynHie87wn8H-28" value="" style="endArrow=none;html=1;rounded=0;strokeColor=#007FFF;" parent="1" edge="1">
          <mxGeometry width="50" height="50" relative="1" as="geometry">
            <mxPoint x="1741" y="410" as="sourcePoint" />
            <mxPoint x="1731" y="410" as="targetPoint" />
          </mxGeometry>
        </mxCell>
        <mxCell id="HZWEALRkoynHie87wn8H-29" value="" style="endArrow=none;html=1;rounded=0;strokeColor=#007FFF;" parent="1" edge="1">
          <mxGeometry width="50" height="50" relative="1" as="geometry">
            <mxPoint x="1731" y="530" as="sourcePoint" />
            <mxPoint x="1741" y="530" as="targetPoint" />
          </mxGeometry>
        </mxCell>
        <mxCell id="HZWEALRkoynHie87wn8H-30" value="" style="endArrow=none;html=1;rounded=0;entryX=-0.005;entryY=0.877;entryDx=0;entryDy=0;entryPerimeter=0;strokeColor=#007FFF;" parent="1" target="K2BF5qZL_mA2AORwVQ5u-117" edge="1">
          <mxGeometry width="50" height="50" relative="1" as="geometry">
            <mxPoint x="1761" y="530" as="sourcePoint" />
            <mxPoint x="1801" y="510" as="targetPoint" />
          </mxGeometry>
        </mxCell>
        <mxCell id="HZWEALRkoynHie87wn8H-31" value="" style="endArrow=none;html=1;rounded=0;strokeColor=#007FFF;" parent="1" edge="1">
          <mxGeometry width="50" height="50" relative="1" as="geometry">
            <mxPoint x="1731" y="650" as="sourcePoint" />
            <mxPoint x="1741" y="650" as="targetPoint" />
          </mxGeometry>
        </mxCell>
        <mxCell id="HZWEALRkoynHie87wn8H-32" value="" style="endArrow=none;html=1;rounded=0;entryX=-0.01;entryY=0.886;entryDx=0;entryDy=0;entryPerimeter=0;strokeColor=#007FFF;" parent="1" target="K2BF5qZL_mA2AORwVQ5u-126" edge="1">
          <mxGeometry width="50" height="50" relative="1" as="geometry">
            <mxPoint x="1761" y="650" as="sourcePoint" />
            <mxPoint x="1801" y="630" as="targetPoint" />
          </mxGeometry>
        </mxCell>
        <mxCell id="HZWEALRkoynHie87wn8H-33" value="" style="endArrow=none;html=1;rounded=0;strokeColor=#007FFF;" parent="1" edge="1">
          <mxGeometry width="50" height="50" relative="1" as="geometry">
            <mxPoint x="1731" y="770" as="sourcePoint" />
            <mxPoint x="1741" y="770" as="targetPoint" />
          </mxGeometry>
        </mxCell>
        <mxCell id="HZWEALRkoynHie87wn8H-34" value="" style="endArrow=none;html=1;rounded=0;entryX=-0.01;entryY=0.895;entryDx=0;entryDy=0;entryPerimeter=0;strokeColor=#007FFF;" parent="1" target="K2BF5qZL_mA2AORwVQ5u-134" edge="1">
          <mxGeometry width="50" height="50" relative="1" as="geometry">
            <mxPoint x="1761" y="770" as="sourcePoint" />
            <mxPoint x="1801" y="740" as="targetPoint" />
          </mxGeometry>
        </mxCell>
        <mxCell id="HZWEALRkoynHie87wn8H-35" value="" style="endArrow=none;html=1;rounded=0;strokeColor=#007FFF;" parent="1" edge="1">
          <mxGeometry width="50" height="50" relative="1" as="geometry">
            <mxPoint x="1731" y="890" as="sourcePoint" />
            <mxPoint x="1741" y="890" as="targetPoint" />
          </mxGeometry>
        </mxCell>
        <mxCell id="HZWEALRkoynHie87wn8H-36" value="" style="endArrow=none;html=1;rounded=0;strokeColor=#007FFF;" parent="1" edge="1">
          <mxGeometry width="50" height="50" relative="1" as="geometry">
            <mxPoint x="1761" y="890" as="sourcePoint" />
            <mxPoint x="1791" y="890" as="targetPoint" />
          </mxGeometry>
        </mxCell>
        <mxCell id="HZWEALRkoynHie87wn8H-37" value="" style="endArrow=none;html=1;rounded=0;entryX=-0.006;entryY=0.862;entryDx=0;entryDy=0;entryPerimeter=0;" parent="1" edge="1">
          <mxGeometry width="50" height="50" relative="1" as="geometry">
            <mxPoint x="1761" y="429.87" as="sourcePoint" />
            <mxPoint x="1791" y="429.87" as="targetPoint" />
          </mxGeometry>
        </mxCell>
        <mxCell id="HZWEALRkoynHie87wn8H-39" value="" style="endArrow=none;html=1;rounded=0;" parent="1" edge="1">
          <mxGeometry width="50" height="50" relative="1" as="geometry">
            <mxPoint x="1740" y="430" as="sourcePoint" />
            <mxPoint x="1730" y="430" as="targetPoint" />
          </mxGeometry>
        </mxCell>
        <mxCell id="HZWEALRkoynHie87wn8H-40" value="" style="endArrow=none;html=1;rounded=0;entryX=0;entryY=0.5;entryDx=0;entryDy=0;" parent="1" target="K2BF5qZL_mA2AORwVQ5u-118" edge="1">
          <mxGeometry width="50" height="50" relative="1" as="geometry">
            <mxPoint x="1760" y="550" as="sourcePoint" />
            <mxPoint x="1801" y="540" as="targetPoint" />
          </mxGeometry>
        </mxCell>
        <mxCell id="HZWEALRkoynHie87wn8H-41" value="" style="endArrow=none;html=1;rounded=0;" parent="1" edge="1">
          <mxGeometry width="50" height="50" relative="1" as="geometry">
            <mxPoint x="1730" y="550" as="sourcePoint" />
            <mxPoint x="1740" y="550" as="targetPoint" />
          </mxGeometry>
        </mxCell>
        <mxCell id="HZWEALRkoynHie87wn8H-43" value="" style="endArrow=none;html=1;rounded=0;entryX=0;entryY=0.5;entryDx=0;entryDy=0;" parent="1" target="K2BF5qZL_mA2AORwVQ5u-127" edge="1">
          <mxGeometry width="50" height="50" relative="1" as="geometry">
            <mxPoint x="1760" y="670" as="sourcePoint" />
            <mxPoint x="1801" y="660" as="targetPoint" />
          </mxGeometry>
        </mxCell>
        <mxCell id="HZWEALRkoynHie87wn8H-44" value="" style="endArrow=none;html=1;rounded=0;" parent="1" edge="1">
          <mxGeometry width="50" height="50" relative="1" as="geometry">
            <mxPoint x="1730" y="670" as="sourcePoint" />
            <mxPoint x="1740" y="670" as="targetPoint" />
          </mxGeometry>
        </mxCell>
        <mxCell id="HZWEALRkoynHie87wn8H-45" value="" style="endArrow=none;html=1;rounded=0;entryX=0;entryY=0.5;entryDx=0;entryDy=0;" parent="1" target="K2BF5qZL_mA2AORwVQ5u-135" edge="1">
          <mxGeometry width="50" height="50" relative="1" as="geometry">
            <mxPoint x="1760" y="790" as="sourcePoint" />
            <mxPoint x="1801" y="780" as="targetPoint" />
          </mxGeometry>
        </mxCell>
        <mxCell id="HZWEALRkoynHie87wn8H-46" value="" style="endArrow=none;html=1;rounded=0;" parent="1" edge="1">
          <mxGeometry width="50" height="50" relative="1" as="geometry">
            <mxPoint x="1730" y="790" as="sourcePoint" />
            <mxPoint x="1740" y="790" as="targetPoint" />
          </mxGeometry>
        </mxCell>
        <mxCell id="HZWEALRkoynHie87wn8H-47" value="" style="endArrow=none;html=1;rounded=0;" parent="1" edge="1">
          <mxGeometry width="50" height="50" relative="1" as="geometry">
            <mxPoint x="1760" y="910" as="sourcePoint" />
            <mxPoint x="1790" y="910" as="targetPoint" />
          </mxGeometry>
        </mxCell>
        <mxCell id="HZWEALRkoynHie87wn8H-48" value="" style="endArrow=none;html=1;rounded=0;" parent="1" edge="1">
          <mxGeometry width="50" height="50" relative="1" as="geometry">
            <mxPoint x="1730" y="910" as="sourcePoint" />
            <mxPoint x="1740" y="910" as="targetPoint" />
          </mxGeometry>
        </mxCell>
        <mxCell id="HZWEALRkoynHie87wn8H-49" value="" style="endArrow=none;html=1;rounded=0;" parent="1" edge="1">
          <mxGeometry width="50" height="50" relative="1" as="geometry">
            <mxPoint x="1710" y="910" as="sourcePoint" />
            <mxPoint x="1670" y="910" as="targetPoint" />
          </mxGeometry>
        </mxCell>
        <mxCell id="HZWEALRkoynHie87wn8H-50" value="" style="endArrow=none;html=1;rounded=0;" parent="1" edge="1">
          <mxGeometry width="50" height="50" relative="1" as="geometry">
            <mxPoint x="1710" y="789.72" as="sourcePoint" />
            <mxPoint x="1670" y="789.72" as="targetPoint" />
          </mxGeometry>
        </mxCell>
        <mxCell id="HZWEALRkoynHie87wn8H-51" value="" style="endArrow=none;html=1;rounded=0;" parent="1" edge="1">
          <mxGeometry width="50" height="50" relative="1" as="geometry">
            <mxPoint x="1710" y="669.72" as="sourcePoint" />
            <mxPoint x="1670" y="669.72" as="targetPoint" />
          </mxGeometry>
        </mxCell>
        <mxCell id="HZWEALRkoynHie87wn8H-52" value="" style="endArrow=none;html=1;rounded=0;" parent="1" edge="1">
          <mxGeometry width="50" height="50" relative="1" as="geometry">
            <mxPoint x="1710" y="549.44" as="sourcePoint" />
            <mxPoint x="1670" y="549.44" as="targetPoint" />
          </mxGeometry>
        </mxCell>
        <mxCell id="HZWEALRkoynHie87wn8H-53" value="" style="endArrow=none;html=1;rounded=0;" parent="1" edge="1">
          <mxGeometry width="50" height="50" relative="1" as="geometry">
            <mxPoint x="1710" y="429.72" as="sourcePoint" />
            <mxPoint x="1670" y="429.72" as="targetPoint" />
          </mxGeometry>
        </mxCell>
        <mxCell id="HZWEALRkoynHie87wn8H-54" value="" style="endArrow=none;html=1;rounded=0;entryX=0;entryY=0.5;entryDx=0;entryDy=0;" parent="1" target="K2BF5qZL_mA2AORwVQ5u-151" edge="1">
          <mxGeometry width="50" height="50" relative="1" as="geometry">
            <mxPoint x="1670" y="1030" as="sourcePoint" />
            <mxPoint x="1790" y="910" as="targetPoint" />
          </mxGeometry>
        </mxCell>
        <mxCell id="HZWEALRkoynHie87wn8H-55" value="" style="endArrow=classic;html=1;rounded=0;entryX=0.093;entryY=1.001;entryDx=0;entryDy=0;entryPerimeter=0;" parent="1" target="K2BF5qZL_mA2AORwVQ5u-21" edge="1">
          <mxGeometry width="50" height="50" relative="1" as="geometry">
            <mxPoint x="1670" y="430" as="sourcePoint" />
            <mxPoint x="1790" y="910" as="targetPoint" />
            <Array as="points">
              <mxPoint x="1670" y="1030" />
              <mxPoint x="779" y="1030" />
              <mxPoint x="780" y="660" />
            </Array>
          </mxGeometry>
        </mxCell>
        <mxCell id="HZWEALRkoynHie87wn8H-59" value="" style="endArrow=classic;html=1;rounded=0;exitX=0.998;exitY=0.854;exitDx=0;exitDy=0;exitPerimeter=0;" parent="1" source="K2BF5qZL_mA2AORwVQ5u-10" edge="1">
          <mxGeometry width="50" height="50" relative="1" as="geometry">
            <mxPoint x="820" y="200" as="sourcePoint" />
            <mxPoint x="1640.5333658854167" y="280" as="targetPoint" />
          </mxGeometry>
        </mxCell>
        <mxCell id="VcYwjSXSbTLjsI8x9XRO-1" value="&lt;font style=&quot;font-size: 14px;&quot;&gt;&lt;b&gt;Thruster&lt;/b&gt;&lt;/font&gt;" style="whiteSpace=wrap;html=1;aspect=fixed;" parent="1" vertex="1">
          <mxGeometry x="2028" y="347.5" width="80" height="80" as="geometry" />
        </mxCell>
        <mxCell id="VcYwjSXSbTLjsI8x9XRO-2" value="" style="endArrow=classic;html=1;rounded=0;entryX=-0.014;entryY=0.156;entryDx=0;entryDy=0;entryPerimeter=0;exitX=1;exitY=0.75;exitDx=0;exitDy=0;strokeColor=#FF0000;" parent="1" source="K2BF5qZL_mA2AORwVQ5u-103" target="VcYwjSXSbTLjsI8x9XRO-1" edge="1">
          <mxGeometry width="50" height="50" relative="1" as="geometry">
            <mxPoint x="1950" y="360" as="sourcePoint" />
            <mxPoint x="1910" y="340" as="targetPoint" />
          </mxGeometry>
        </mxCell>
        <mxCell id="VcYwjSXSbTLjsI8x9XRO-3" value="" style="endArrow=classic;html=1;rounded=0;entryX=-0.014;entryY=0.156;entryDx=0;entryDy=0;entryPerimeter=0;exitX=1;exitY=0.75;exitDx=0;exitDy=0;strokeColor=#FF0000;" parent="1" edge="1">
          <mxGeometry width="50" height="50" relative="1" as="geometry">
            <mxPoint x="1941" y="390" as="sourcePoint" />
            <mxPoint x="2027" y="390" as="targetPoint" />
          </mxGeometry>
        </mxCell>
        <mxCell id="VcYwjSXSbTLjsI8x9XRO-4" value="" style="endArrow=classic;html=1;rounded=0;entryX=-0.014;entryY=0.156;entryDx=0;entryDy=0;entryPerimeter=0;exitX=1;exitY=0.75;exitDx=0;exitDy=0;strokeColor=#FF0000;" parent="1" edge="1">
          <mxGeometry width="50" height="50" relative="1" as="geometry">
            <mxPoint x="1941" y="420" as="sourcePoint" />
            <mxPoint x="2027" y="420" as="targetPoint" />
          </mxGeometry>
        </mxCell>
        <mxCell id="VcYwjSXSbTLjsI8x9XRO-5" value="&lt;font style=&quot;font-size: 14px;&quot;&gt;&lt;b&gt;Thruster&lt;/b&gt;&lt;/font&gt;" style="whiteSpace=wrap;html=1;aspect=fixed;" parent="1" vertex="1">
          <mxGeometry x="2028" y="467.5" width="80" height="80" as="geometry" />
        </mxCell>
        <mxCell id="VcYwjSXSbTLjsI8x9XRO-6" value="" style="endArrow=classic;html=1;rounded=0;entryX=-0.014;entryY=0.156;entryDx=0;entryDy=0;entryPerimeter=0;exitX=1;exitY=0.75;exitDx=0;exitDy=0;strokeColor=#FF0000;" parent="1" target="VcYwjSXSbTLjsI8x9XRO-5" edge="1">
          <mxGeometry width="50" height="50" relative="1" as="geometry">
            <mxPoint x="1941" y="480" as="sourcePoint" />
            <mxPoint x="1910" y="460" as="targetPoint" />
          </mxGeometry>
        </mxCell>
        <mxCell id="VcYwjSXSbTLjsI8x9XRO-7" value="" style="endArrow=classic;html=1;rounded=0;entryX=-0.014;entryY=0.156;entryDx=0;entryDy=0;entryPerimeter=0;exitX=1;exitY=0.75;exitDx=0;exitDy=0;strokeColor=#FF0000;" parent="1" edge="1">
          <mxGeometry width="50" height="50" relative="1" as="geometry">
            <mxPoint x="1941" y="510" as="sourcePoint" />
            <mxPoint x="2027" y="510" as="targetPoint" />
          </mxGeometry>
        </mxCell>
        <mxCell id="VcYwjSXSbTLjsI8x9XRO-8" value="" style="endArrow=classic;html=1;rounded=0;entryX=-0.014;entryY=0.156;entryDx=0;entryDy=0;entryPerimeter=0;exitX=1;exitY=0.75;exitDx=0;exitDy=0;strokeColor=#FF0000;" parent="1" edge="1">
          <mxGeometry width="50" height="50" relative="1" as="geometry">
            <mxPoint x="1941" y="540" as="sourcePoint" />
            <mxPoint x="2027" y="540" as="targetPoint" />
          </mxGeometry>
        </mxCell>
        <mxCell id="VcYwjSXSbTLjsI8x9XRO-9" value="&lt;font style=&quot;font-size: 14px;&quot;&gt;&lt;b&gt;Thruster&lt;/b&gt;&lt;/font&gt;" style="whiteSpace=wrap;html=1;aspect=fixed;" parent="1" vertex="1">
          <mxGeometry x="2028" y="587.5" width="80" height="80" as="geometry" />
        </mxCell>
        <mxCell id="VcYwjSXSbTLjsI8x9XRO-10" value="" style="endArrow=classic;html=1;rounded=0;entryX=-0.014;entryY=0.156;entryDx=0;entryDy=0;entryPerimeter=0;exitX=1;exitY=0.75;exitDx=0;exitDy=0;strokeColor=#FF0000;" parent="1" target="VcYwjSXSbTLjsI8x9XRO-9" edge="1">
          <mxGeometry width="50" height="50" relative="1" as="geometry">
            <mxPoint x="1941" y="600" as="sourcePoint" />
            <mxPoint x="1910" y="580" as="targetPoint" />
          </mxGeometry>
        </mxCell>
        <mxCell id="VcYwjSXSbTLjsI8x9XRO-11" value="" style="endArrow=classic;html=1;rounded=0;entryX=-0.014;entryY=0.156;entryDx=0;entryDy=0;entryPerimeter=0;exitX=1;exitY=0.75;exitDx=0;exitDy=0;strokeColor=#FF0000;" parent="1" edge="1">
          <mxGeometry width="50" height="50" relative="1" as="geometry">
            <mxPoint x="1941" y="630" as="sourcePoint" />
            <mxPoint x="2027" y="630" as="targetPoint" />
          </mxGeometry>
        </mxCell>
        <mxCell id="VcYwjSXSbTLjsI8x9XRO-12" value="" style="endArrow=classic;html=1;rounded=0;entryX=-0.014;entryY=0.156;entryDx=0;entryDy=0;entryPerimeter=0;exitX=1;exitY=0.75;exitDx=0;exitDy=0;strokeColor=#FF0000;" parent="1" edge="1">
          <mxGeometry width="50" height="50" relative="1" as="geometry">
            <mxPoint x="1941" y="660" as="sourcePoint" />
            <mxPoint x="2027" y="660" as="targetPoint" />
          </mxGeometry>
        </mxCell>
        <mxCell id="VcYwjSXSbTLjsI8x9XRO-13" value="&lt;font style=&quot;font-size: 14px;&quot;&gt;&lt;b&gt;Thruster&lt;/b&gt;&lt;/font&gt;" style="whiteSpace=wrap;html=1;aspect=fixed;" parent="1" vertex="1">
          <mxGeometry x="2028" y="707.5" width="80" height="80" as="geometry" />
        </mxCell>
        <mxCell id="VcYwjSXSbTLjsI8x9XRO-14" value="" style="endArrow=classic;html=1;rounded=0;entryX=-0.014;entryY=0.156;entryDx=0;entryDy=0;entryPerimeter=0;exitX=1;exitY=0.75;exitDx=0;exitDy=0;strokeColor=#FF0000;" parent="1" target="VcYwjSXSbTLjsI8x9XRO-13" edge="1">
          <mxGeometry width="50" height="50" relative="1" as="geometry">
            <mxPoint x="1941" y="720" as="sourcePoint" />
            <mxPoint x="1910" y="700" as="targetPoint" />
          </mxGeometry>
        </mxCell>
        <mxCell id="VcYwjSXSbTLjsI8x9XRO-15" value="" style="endArrow=classic;html=1;rounded=0;entryX=-0.014;entryY=0.156;entryDx=0;entryDy=0;entryPerimeter=0;exitX=1;exitY=0.75;exitDx=0;exitDy=0;strokeColor=#FF0000;" parent="1" edge="1">
          <mxGeometry width="50" height="50" relative="1" as="geometry">
            <mxPoint x="1941" y="750" as="sourcePoint" />
            <mxPoint x="2027" y="750" as="targetPoint" />
          </mxGeometry>
        </mxCell>
        <mxCell id="VcYwjSXSbTLjsI8x9XRO-16" value="" style="endArrow=classic;html=1;rounded=0;entryX=-0.014;entryY=0.156;entryDx=0;entryDy=0;entryPerimeter=0;exitX=1;exitY=0.75;exitDx=0;exitDy=0;strokeColor=#FF0000;" parent="1" edge="1">
          <mxGeometry width="50" height="50" relative="1" as="geometry">
            <mxPoint x="1941" y="780" as="sourcePoint" />
            <mxPoint x="2027" y="780" as="targetPoint" />
          </mxGeometry>
        </mxCell>
        <mxCell id="VcYwjSXSbTLjsI8x9XRO-17" value="&lt;font style=&quot;font-size: 14px;&quot;&gt;&lt;b&gt;Thruster&lt;/b&gt;&lt;/font&gt;" style="whiteSpace=wrap;html=1;aspect=fixed;" parent="1" vertex="1">
          <mxGeometry x="2028" y="827.5" width="80" height="80" as="geometry" />
        </mxCell>
        <mxCell id="VcYwjSXSbTLjsI8x9XRO-18" value="" style="endArrow=classic;html=1;rounded=0;entryX=-0.014;entryY=0.156;entryDx=0;entryDy=0;entryPerimeter=0;exitX=1;exitY=0.75;exitDx=0;exitDy=0;strokeColor=#FF0000;" parent="1" target="VcYwjSXSbTLjsI8x9XRO-17" edge="1">
          <mxGeometry width="50" height="50" relative="1" as="geometry">
            <mxPoint x="1941" y="840" as="sourcePoint" />
            <mxPoint x="1910" y="820" as="targetPoint" />
          </mxGeometry>
        </mxCell>
        <mxCell id="VcYwjSXSbTLjsI8x9XRO-19" value="" style="endArrow=classic;html=1;rounded=0;entryX=-0.014;entryY=0.156;entryDx=0;entryDy=0;entryPerimeter=0;exitX=1;exitY=0.75;exitDx=0;exitDy=0;strokeColor=#FF0000;" parent="1" edge="1">
          <mxGeometry width="50" height="50" relative="1" as="geometry">
            <mxPoint x="1941" y="870" as="sourcePoint" />
            <mxPoint x="2027" y="870" as="targetPoint" />
          </mxGeometry>
        </mxCell>
        <mxCell id="VcYwjSXSbTLjsI8x9XRO-20" value="" style="endArrow=classic;html=1;rounded=0;entryX=-0.014;entryY=0.156;entryDx=0;entryDy=0;entryPerimeter=0;exitX=1;exitY=0.75;exitDx=0;exitDy=0;strokeColor=#FF0000;" parent="1" edge="1">
          <mxGeometry width="50" height="50" relative="1" as="geometry">
            <mxPoint x="1941" y="900" as="sourcePoint" />
            <mxPoint x="2027" y="900" as="targetPoint" />
          </mxGeometry>
        </mxCell>
        <mxCell id="VcYwjSXSbTLjsI8x9XRO-21" value="&lt;font style=&quot;font-size: 14px;&quot;&gt;&lt;b&gt;Thruster&lt;/b&gt;&lt;/font&gt;" style="whiteSpace=wrap;html=1;aspect=fixed;" parent="1" vertex="1">
          <mxGeometry x="2028" y="947.5" width="80" height="80" as="geometry" />
        </mxCell>
        <mxCell id="VcYwjSXSbTLjsI8x9XRO-22" value="" style="endArrow=classic;html=1;rounded=0;entryX=-0.014;entryY=0.156;entryDx=0;entryDy=0;entryPerimeter=0;exitX=1;exitY=0.75;exitDx=0;exitDy=0;strokeColor=#FF0000;" parent="1" target="VcYwjSXSbTLjsI8x9XRO-21" edge="1">
          <mxGeometry width="50" height="50" relative="1" as="geometry">
            <mxPoint x="1941" y="960" as="sourcePoint" />
            <mxPoint x="1910" y="940" as="targetPoint" />
          </mxGeometry>
        </mxCell>
        <mxCell id="VcYwjSXSbTLjsI8x9XRO-23" value="" style="endArrow=classic;html=1;rounded=0;entryX=-0.014;entryY=0.156;entryDx=0;entryDy=0;entryPerimeter=0;exitX=1;exitY=0.75;exitDx=0;exitDy=0;strokeColor=#FF0000;" parent="1" edge="1">
          <mxGeometry width="50" height="50" relative="1" as="geometry">
            <mxPoint x="1941" y="990" as="sourcePoint" />
            <mxPoint x="2027" y="990" as="targetPoint" />
          </mxGeometry>
        </mxCell>
        <mxCell id="VcYwjSXSbTLjsI8x9XRO-24" value="" style="endArrow=classic;html=1;rounded=0;entryX=-0.014;entryY=0.156;entryDx=0;entryDy=0;entryPerimeter=0;exitX=1;exitY=0.75;exitDx=0;exitDy=0;strokeColor=#FF0000;" parent="1" edge="1">
          <mxGeometry width="50" height="50" relative="1" as="geometry">
            <mxPoint x="1941" y="1020" as="sourcePoint" />
            <mxPoint x="2027" y="1020" as="targetPoint" />
          </mxGeometry>
        </mxCell>
      </root>
    </mxGraphModel>
  </diagram>
</mxfile>
